<?xml version="1.0" encoding="UTF-8"?>
<svg viewBox="0 0 384.59497 563.98804" xmlns="http://www.w3.org/2000/svg" xmlns:xlink="http://www.w3.org/1999/xlink">
 <defs>
  <filter id="t">
   <feGaussianBlur result="result8" stdDeviation="10"/>
   <feComposite in="SourceGraphic" in2="result8" operator="in" result="result6"/>
   <feComposite in2="result6" operator="in" result="result11"/>
   <feFlood flood-color="#1a1a1a" flood-opacity=".3421" result="result10"/>
   <feBlend in="result11" in2="result10" result="result12"/>
   <feComposite in="result12" in2="SourceGraphic" operator="in" result="result2"/>
  </filter>
  <linearGradient id="c">
   <stop stop-color="#b7a277" offset="0"/>
   <stop stop-color="#d0b374" stop-opacity="0" offset=".2571"/>
   <stop stop-color="#e9c572" offset=".8372"/>
   <stop stop-color="#61480f" offset=".9329"/>
   <stop stop-color="#61480f" offset="1"/>
  </linearGradient>
  <linearGradient id="s" x1="154.06" x2="193.45" y1="169.46" y2="169.37" gradientUnits="userSpaceOnUse">
   <stop stop-color="#b7a277" offset="0"/>
   <stop offset=".2669"/>
   <stop stop-color="#f0d9a5" offset=".8144"/>
   <stop stop-color="#61480f" offset="1"/>
  </linearGradient>
  <linearGradient id="r" x1="179.38" x2="221.58" y1="2.747" y2="5.2616" gradientUnits="userSpaceOnUse">
   <stop stop-color="#b7a277" offset="0"/>
   <stop offset=".2669"/>
   <stop stop-color="#f0d9a5" offset=".7151"/>
   <stop stop-color="#61480f" offset="1"/>
  </linearGradient>
  <linearGradient id="q" x2="0" y1="371.78" y2="364.77" gradientUnits="userSpaceOnUse">
   <stop stop-color="#b3b3b3" offset="0"/>
   <stop stop-opacity="0" offset="1"/>
  </linearGradient>
  <marker id="u" orient="auto">
   <path transform="matrix(.8,0,0,.8,10,0)" d="m0 0 5-5-17.5 5 17.5 5-5-5z" fill-rule="evenodd" stroke="#000" stroke-width="1pt"/>
  </marker>
  <radialGradient id="p" cx="200.16" cy="199.91" r="174.98" gradientTransform="matrix(1 -.00048934 .00048389 .98887 -.09671 2.3228)" gradientUnits="userSpaceOnUse">
   <stop stop-color="#b7a277" offset="0"/>
   <stop offset=".9038"/>
   <stop stop-color="#f0d9a5" offset=".9729"/>
   <stop stop-color="#61480f" offset="1"/>
  </radialGradient>
  <radialGradient id="o" cx="200.16" cy="199.91" r="164.14" gradientUnits="userSpaceOnUse">
   <stop stop-color="#b7a277" offset="0"/>
   <stop offset=".9038"/>
   <stop stop-color="#f0d9a5" offset=".9667"/>
   <stop stop-color="#f0d9a5" offset=".9855"/>
   <stop stop-color="#352708" offset="1"/>
  </radialGradient>
  <radialGradient id="n" cx="200.16" cy="199.91" r="154.32" gradientUnits="userSpaceOnUse">
   <stop stop-color="#b7a277" offset="0"/>
   <stop stop-color="#e9c572" offset=".9664"/>
   <stop stop-color="#61480f" offset=".9846"/>
   <stop stop-color="#e9c572" offset="1"/>
  </radialGradient>
  <radialGradient id="m" cx="200" cy="-90" r="81.585" gradientUnits="userSpaceOnUse">
   <stop stop-color="#b7a277" offset="0"/>
   <stop offset=".8935"/>
   <stop stop-color="#f0d9a5" offset=".9482"/>
   <stop stop-color="#f0d9a5" offset=".9691"/>
   <stop stop-color="#352708" offset="1"/>
  </radialGradient>
  <radialGradient id="l" cx="200.51" cy="-48.532" r="40.5" gradientTransform="matrix(.99995 -.00987 .01421 1.44 .69944 20.066)" gradientUnits="userSpaceOnUse">
   <stop stop-color="#b7a277" offset="0"/>
   <stop offset=".8354"/>
   <stop stop-color="#e9c572" offset=".9427"/>
   <stop stop-color="#61480f" offset=".9835"/>
   <stop stop-color="#61480f" offset="1"/>
  </radialGradient>
  <radialGradient id="k" cx="199.99" cy="-53.259" r="37.848" gradientTransform="matrix(.95096 .00058139 -.00091394 1.4949 9.77 26.919)" gradientUnits="userSpaceOnUse">
   <stop stop-color="#b7a277" offset="0"/>
   <stop offset=".6682"/>
   <stop stop-color="#e9c572" offset=".9224"/>
   <stop stop-color="#61480f" offset=".9613"/>
   <stop stop-color="#61480f" offset="1"/>
  </radialGradient>
  <radialGradient id="j" cx="200" cy="-47.323" r="30.5" gradientTransform="matrix(.96074 -6.5574e-8 1.7147e-7 2.224 7.8521 62.463)" gradientUnits="userSpaceOnUse">
   <stop stop-color="#b7a277" offset="0"/>
   <stop offset=".5611"/>
   <stop stop-color="#e9c572" offset=".9142"/>
   <stop stop-color="#61480f" offset=".9613"/>
   <stop stop-color="#61480f" offset="1"/>
  </radialGradient>
  <radialGradient id="i" cx="200" cy="-59.067" r="20.394" gradientTransform="matrix(.90026 -1.422e-7 4.8087e-7 3.0444 19.948 132.56)" gradientUnits="userSpaceOnUse">
   <stop offset="0"/>
   <stop stop-color="#e9c572" offset=".8751"/>
   <stop stop-color="#61480f" offset=".9613"/>
   <stop stop-color="#61480f" offset="1"/>
  </radialGradient>
  <radialGradient id="f" cx="174.83" cy="99.756" r="2.5332" gradientTransform="matrix(1 0 0 27.248 0 -2586.6)" gradientUnits="userSpaceOnUse">
   <stop offset="0"/>
   <stop stop-color="#e9c572" offset=".474"/>
   <stop stop-color="#61480f" offset=".9613"/>
   <stop stop-color="#61480f" offset="1"/>
  </radialGradient>
  <radialGradient id="e" cx="200" cy="-103.59" r="40" gradientTransform="matrix(1.0054 0 0 .3101 -1.0852 -51.742)" gradientUnits="userSpaceOnUse">
   <stop stop-color="#fff" offset="0"/>
   <stop stop-color="#fff" stop-opacity="0" offset="1"/>
  </radialGradient>
  <radialGradient id="d" cx="-133.65" cy="93.376" r="105" gradientUnits="userSpaceOnUse">
   <stop stop-color="#fff" offset="0"/>
   <stop stop-color="#0ff" stop-opacity=".0975" offset="1"/>
  </radialGradient>
  <radialGradient id="h" cx="200.04" cy="-69.744" r="5.5364" gradientTransform="matrix(1.6129 -8.3955e-7 6.4104e-6 12.315 -122.61 817.63)" gradientUnits="userSpaceOnUse" xlink:href="#c"/>
  <radialGradient id="g" cx="200.09" cy="-69.539" r="5.5364" gradientTransform="matrix(1.7041 2.8179e-6 -2.0795e-5 12.576 -140.89 834.52)" gradientUnits="userSpaceOnUse" xlink:href="#c"/>
 </defs>
 <g transform="translate(-7.8596 171.78)">
  <path d="m200.16 25.281c-96.391 0-174.62 78.234-174.62 174.62s78.234 174.62 174.62 174.62 174.62-78.234 174.62-174.62-78.234-174.62-174.62-174.62z" fill="#fff"/>
  <path d="m200.16 25.281c-96.391 0-174.62 78.234-174.62 174.62s78.234 174.62 174.62 174.62 174.62-78.234 174.62-174.62-78.234-174.62-174.62-174.62zm0 10c90.87 0 164.62 73.754 164.62 164.62s-73.754 164.62-164.62 164.62-164.62-73.754-164.62-164.62 73.754-164.62 164.62-164.62z" fill="url(#p)"/>
  <path d="m200.16 35.281c-90.87 0-164.62 73.754-164.62 164.62s73.754 164.62 164.62 164.62 164.62-73.754 164.62-164.62-73.754-164.62-164.62-164.62zm0 10c85.357 2e-6 154.62 69.268 154.62 154.62s-69.268 154.62-154.62 154.62-154.62-69.268-154.62-154.62 69.268-154.62 154.62-154.62z" fill="url(#o)"/>
  <path d="m200.16 45.281c-85.357 0-154.62 69.268-154.62 154.62s69.268 154.62 154.62 154.62 154.62-69.268 154.62-154.62-69.268-154.62-154.62-154.62zm0 4.9688c82.603 2e-6 149.66 67.053 149.66 149.66s-67.053 149.66-149.66 149.66-149.66-67.053-149.66-149.66 67.053-149.66 149.66-149.66z" fill="url(#n)"/>
 </g>
 <g transform="translate(-7.8596 171.78)">
  <path d="m200-171.78c-45.149 0-81.781 36.633-81.781 81.781s36.633 81.781 81.781 81.781 81.781-36.633 81.781-81.781-36.633-81.781-81.781-81.781zm0 6.7812c41.4 0 75 33.6 75 75s-33.6 75-75 75-75-33.6-75-75 33.6-75 75-75z" fill="url(#m)"/>
  <path transform="translate(25.175 -172.43)" d="m154.81 132.44v34.875h40v-34.875h-40zm0 49.875v20.125c15.01 5.3603 26.87 5.4159 40 0v-20.125h-40z" fill="url(#s)" fill-rule="evenodd"/>
  <path d="m200-110c-22.08 0-40 23.52-40 52.5 0 6.1384 0.83528 12.023 2.3125 17.5h75.375c1.4772-5.4768 2.3125-11.362 2.3125-17.5 0-28.98-17.92-52.5-40-52.5z" fill="url(#l)" fill-rule="evenodd"/>
  <path d="m200-110c31.885 14.001 36.538 43.711 37.348 70h-74.696c0.8097-26.289 5.4627-55.999 37.348-70" fill="url(#k)"/>
  <path d="m200-110c-23.729 18.925-30 45.316-30 70h60c0-24.684-6.2712-51.075-30-70" fill="url(#j)"/>
  <path d="m200-110c15.969 21.453 20 45.96 19.892 70h-39.784c-0.10825-24.04 3.9224-48.547 19.892-70" fill="url(#i)"/>
  <path d="m200-40v-70c9.0208 22.856 10.966 46.877 9.7429 70z" fill="url(#g)"/>
  <path d="m200-40v-70c-9.0208 22.856-10.966 46.877-9.7429 70z" fill="url(#h)"/>
  <path d="m180-5.1123h40.005c-1.3545 5-1.439 10 0 15h-40.005c1.4869-4.8284 1.4483-9.8329 0-15z" fill="url(#r)"/>
  <path transform="translate(25.175 -172.43)" d="m175 62.319c0.66192 22.581 3.8416 42.301 0 70-4.2936-21.021-1.1938-46.024 0-70z" fill="url(#f)"/>
  <path d="m200-110c-22.08 0-40 23.52-40 52.5 0 6.1384 0.83528 12.023 2.3125 17.5h75.375c1.4772-5.4768 2.3125-11.362 2.3125-17.5 0-28.98-17.92-52.5-40-52.5z" fill="url(#e)" fill-rule="evenodd" opacity=".5099"/>
 </g>
 <g transform="translate(-7.8596 171.78)">
  <path transform="matrix(1.4252 0 0 1.4252 449.56 -35.245)" d="m-70 165c0 57.99-47.01 105-105 105s-105-47.01-105-105 47.01-105 105-105 105 47.01 105 105z" fill="#f9f9f9" filter="url(#t)"/>
  <path transform="matrix(1.3539 0 0 1.3539 436.94 -23.397)" d="m-70 165c0 57.99-47.01 105-105 105s-105-47.01-105-105 47.01-105 105-105 105 47.01 105 105z" fill="none" stroke="#000" stroke-width=".22158"/>
  <path transform="matrix(1.3064 0 0 1.3064 428.62 -15.558)" d="m-70 165c0 57.99-47.01 105-105 105s-105-47.01-105-105 47.01-105 105-105 105 47.01 105 105z" fill="none" stroke="#000" stroke-width=".22964"/>
  <path id="a" transform="matrix(1.6859 0 0 1.6859 -130.86 -52.126)" d="m197.14698,66.72324c0,.49139-.39834.88974-.88973.88974s-.88974-.39835-.88974-.88974 .39835-.88974.88974-.88974 .88973.39835.88973.88974z"/>
  <use transform="translate(69.858 18.644)" width="400" height="400" xlink:href="#a"/>
  <use transform="translate(121 69.786)" width="400" height="400" xlink:href="#a"/>
  <use transform="translate(139.64 139.64)" width="400" height="400" xlink:href="#a"/>
  <use transform="translate(120.85 209.41)" width="400" height="400" xlink:href="#a"/>
  <use transform="translate(69.717 260.4)" width="400" height="400" xlink:href="#a"/>
  <use transform="translate(-.00324 278.99)" width="400" height="400" xlink:href="#a"/>
  <use transform="translate(-69.799 18.773)" width="400" height="400" xlink:href="#a"/>
  <use transform="translate(-120.77 69.915)" width="400" height="400" xlink:href="#a"/>
  <use transform="translate(-139.35 139.64)" width="400" height="400" xlink:href="#a"/>
  <use transform="translate(-120.64 209.29)" width="400" height="400" xlink:href="#a"/>
  <use transform="translate(-69.658 260.27)" width="400" height="400" xlink:href="#a"/>
  <path d="m341.37 185.14-4.984 0.52384" fill="none" stroke="#000"/>
  <path d="m339.04 170.44-4.9019 1.0419" fill="none" stroke="#000"/>
  <path d="m335.19 156.07-4.7662 1.5486" fill="none" stroke="#000"/>
  <path d="m329.86 142.18-4.5782 2.0383" fill="none" stroke="#000"/>
  <g transform="matrix(.86591 -.5002 .5002 .86591 -73.222 126.86)" fill="none" stroke="#000">
   <path d="m341.37 185.14-4.984 0.52384"/>
   <path d="m339.04 170.44-4.9019 1.0419"/>
   <path d="m335.19 156.07-4.7662 1.5486"/>
   <path d="m329.86 142.18-4.5782 2.0383"/>
  </g>
  <g transform="matrix(.50072 -.86561 .86561 .50072 -73.266 272.98)" fill="none" stroke="#000">
   <path d="m341.37 185.14-4.984 0.52384"/>
   <path d="m339.04 170.44-4.9019 1.0419"/>
   <path d="m335.19 156.07-4.7662 1.5486"/>
   <path d="m329.86 142.18-4.5782 2.0383"/>
  </g>
  <g transform="matrix(.86611 .49985 -.49985 .86611 126.75 -73.192)" fill="none" stroke="#000">
   <path d="m341.37 185.14-4.984 0.52384"/>
   <path d="m339.04 170.44-4.9019 1.0419"/>
   <path d="m335.19 156.07-4.7662 1.5486"/>
   <path d="m329.86 142.18-4.5782 2.0383"/>
  </g>
  <g transform="matrix(.4994 .86637 -.86637 .4994 273.39 -73.154)" fill="none" stroke="#000">
   <path d="m341.37 185.14-4.984 0.52384"/>
   <path d="m339.04 170.44-4.9019 1.0419"/>
   <path d="m335.19 156.07-4.7662 1.5486"/>
   <path d="m329.86 142.18-4.5782 2.0383"/>
  </g>
  <g transform="matrix(.00049392 1 -1 .00049392 399.9 -.09877)" fill="none" stroke="#000">
   <path d="m341.37 185.14-4.984 0.52384"/>
   <path d="m339.04 170.44-4.9019 1.0419"/>
   <path d="m335.19 156.07-4.7662 1.5486"/>
   <path d="m329.86 142.18-4.5782 2.0383"/>
  </g>
  <g transform="matrix(-1 -.00115 .00115 -1 399.77 400.23)" fill="none" stroke="#000">
   <path d="m341.37 185.14-4.984 0.52384"/>
   <path d="m339.04 170.44-4.9019 1.0419"/>
   <path d="m335.19 156.07-4.7662 1.5486"/>
   <path d="m329.86 142.18-4.5782 2.0383"/>
   <g transform="matrix(.86591 -.5002 .5002 .86591 -73.222 126.86)">
    <path d="m341.37 185.14-4.984 0.52384"/>
    <path d="m339.04 170.44-4.9019 1.0419"/>
    <path d="m335.19 156.07-4.7662 1.5486"/>
    <path d="m329.86 142.18-4.5782 2.0383"/>
   </g>
   <g transform="matrix(.50072 -.86561 .86561 .50072 -73.266 272.98)">
    <path d="m341.37 185.14-4.984 0.52384"/>
    <path d="m339.04 170.44-4.9019 1.0419"/>
    <path d="m335.19 156.07-4.7662 1.5486"/>
    <path d="m329.86 142.18-4.5782 2.0383"/>
   </g>
   <g transform="matrix(.86611 .49985 -.49985 .86611 126.75 -73.192)">
    <path d="m341.37 185.14-4.984 0.52384"/>
    <path d="m339.04 170.44-4.9019 1.0419"/>
    <path d="m335.19 156.07-4.7662 1.5486"/>
    <path d="m329.86 142.18-4.5782 2.0383"/>
   </g>
   <g transform="matrix(.4994 .86637 -.86637 .4994 273.39 -73.154)">
    <path d="m341.37 185.14-4.984 0.52384"/>
    <path d="m339.04 170.44-4.9019 1.0419"/>
    <path d="m335.19 156.07-4.7662 1.5486"/>
    <path d="m329.86 142.18-4.5782 2.0383"/>
   </g>
   <g transform="matrix(.00049392 1 -1 .00049392 399.9 -.09877)">
    <path d="m341.37 185.14-4.984 0.52384"/>
    <path d="m339.04 170.44-4.9019 1.0419"/>
    <path d="m335.19 156.07-4.7662 1.5486"/>
    <path d="m329.86 142.18-4.5782 2.0383"/>
   </g>
  </g>
  <g transform="scale(.4885,2.0471)" font-family="Ibarra" font-size="25.879" font-weight="bold" text-anchor="middle">
   <path d="m403.6464,32.90812-4.37363,6.23695 4.6583,8.38494h2.97614c.15526,2e-006 .2674.07764.33643.23292 .069.13803.1035.28468.10352.43995-2e-005,.06901-.0259.18978-.0776.36231s-.18118.26742-.38819.28467h-8.10027c-.17254,0-.30194-.07764-.38819-.23292-.069-.15528-.10353-.31918-.10352-.49171-1e-005-.10352.0172-.22429.0518-.36231 .0517-.13802.18977-.21566.41407-.23292h1.7598l-3.15729-5.64172-3.95955,5.64172h1.70804c.17252,2e-006 .29329.07764.36231.23292 .069.13803.10351.28468.10352.43995-1e-005,.06901-.0259.18978-.0776.36231s-.18116.26742-.38819.28467h-5.69348c-.17253,0-.2933-.06901-.36231-.20704-.069-.15528-.10352-.31055-.10352-.46583 0-.06901.0259-.18978.0776-.36231s.18115-.26742.38819-.28467h2.84674l4.60654-6.5475-4.47714-8.07439h-2.7691c-.17253,1.6e-005-.29331-.069-.36232-.20704-.069-.15526-.10351-.31054-.10351-.46583 0-.069.0259-.18977.0776-.36231s.18116-.2674.3882-.28467h7.99675c.18977,1.8e-005 .31054.07766.36231.23292 .069.13804.10351.27607.10352.41407-1e-005,.08628-.0345.22431-.10352.41407-.069.17255-.19842.25881-.38819.25879h-1.75981l2.95026,5.33117 3.7784-5.33117h-1.83744c-.17254,1.6e-005-.29331-.069-.36231-.20704-.069-.15526-.10353-.31054-.10352-.46583-1e-005-.069.0259-.18977.0776-.36231s.18114-.2674.38819-.28467h5.71936c.17251,1.8e-005 .29328.07766.36231.23292 .069.13804.1035.28469.10352.43995-2e-005,.06903-.0259.1898-.0776.36231s-.18118.26744-.38819.28467h-2.79498"/>
   <path d="m415.47978,32.90812v14.62189h2.89849c.20703,2e-006 .33643.07764.3882.23292 .0517.13803.0776.28468.0776.43995-1e-005,.10352-.0345.23292-.10351.38819-.0518.15528-.18117.24154-.3882.25879h-8.66961c-.17253,0-.30193-.07764-.38819-.23292-.069-.15528-.10352-.31918-.10352-.49171 0-.10352.0172-.22429.0518-.36231 .0518-.13802.18978-.21566.41407-.23292h2.84674v-14.62189h-2.8985c-.18978,1.6e-005-.31918-.069-.38819-.20704-.0518-.15526-.0776-.31054-.0776-.46583 0-.069.0172-.17251.0518-.31055 .10352-.20702.25017-.31916.43995-.33643h8.66962c.17251,1.8e-005 .29329.08628.36231.2588 .0862.15529.12938.29332.12939.41407-1e-005,.06903-.0259.1898-.0776.36231-.0345.17255-.16392.26744-.3882.28467h-2.84673"/>
   <path d="m426.95367,32.90812v14.62189h2.8985c.20702,2e-006 .33642.07764.38819.23292 .0517.13803.0776.28468.0776.43995-1e-005,.10352-.0345.23292-.10352.38819-.0518.15528-.18116.24154-.38819.25879h-8.66962c-.17253,0-.30192-.07764-.38819-.23292-.069-.15528-.10352-.31918-.10351-.49171-1e-005-.10352.0172-.22429.0518-.36231 .0518-.13802.18979-.21566.41408-.23292h2.84673v-14.62189h-2.89849c-.18979,1.6e-005-.31918-.069-.3882-.20704-.0517-.15526-.0776-.31054-.0776-.46583 0-.069.0173-.17251.0518-.31055 .10351-.20702.25016-.31916.43995-.33643h8.66961c.17252,1.8e-005 .29329.08628.36231.2588 .0863.15529.12939.29332.1294.41407-1e-005,.06903-.0259.1898-.0776.36231-.0345.17255-.16391.26744-.38819.28467h-2.84674"/>
  </g>
  <g transform="matrix(.42415 -.24233 1.0155 1.7774 0 0)" font-family="Ibarra" font-size="25.879" font-weight="bold" text-anchor="middle">
   <path d="m151.04538,68.2855-4.37363,6.23695 4.6583,8.38494h2.97614c.15526,1e-006 .2674.07764.33643.23292 .069.13802.1035.28467.10352.43995-2e-005,.06901-.0259.18978-.0776.36231s-.18117.26742-.38819.28467h-8.10027c-.17254,0-.30193-.07764-.38819-.23292-.069-.15528-.10353-.31918-.10352-.49171-1e-005-.10352.0172-.22429.0518-.36231 .0517-.13802.18977-.21566.41407-.23292h1.75981l-3.1573-5.64172-3.95955,5.64172h1.70804c.17252,1e-006 .29329.07764.36231.23292 .069.13802.10351.28467.10352.43995-1e-005,.06901-.0259.18978-.0776.36231s-.18116.26742-.38819.28467h-5.69348c-.17253,0-.2933-.06901-.36231-.20704-.069-.15528-.10352-.31055-.10352-.46583 0-.06901.0259-.18978.0776-.36231s.18116-.26742.38819-.28467h2.84674l4.60654-6.5475-4.47714-8.07439h-2.7691c-.17253,1.6e-005-.2933-.069-.36231-.20704-.069-.15526-.10352-.31054-.10352-.46583 0-.069.0259-.18977.0776-.36231s.18115-.2674.38819-.28467h7.99675c.18977,1.7e-005 .31054.07766.36231.23292 .069.13804.10351.27606.10352.41407-1e-005,.08628-.0345.22431-.10352.41407-.069.17255-.19842.25881-.38819.2588h-1.7598l2.95025,5.33117 3.7784-5.33117h-1.83744c-.17254,1.6e-005-.29331-.069-.36231-.20704-.069-.15526-.10353-.31054-.10352-.46583-1e-005-.069.0259-.18977.0776-.36231s.18114-.2674.38819-.28467h5.71936c.17251,1.7e-005 .29328.07766.36231.23292 .069.13804.1035.28469.10352.43995-2e-005,.06903-.0259.1898-.0776.36231s-.18117.26744-.38819.28467h-2.79498"/>
   <path d="m162.87875,68.2855v14.62189h2.8985c.20703,1e-006 .33643.07764.38819.23292 .0517.13802.0776.28467.0776.43995-1e-005,.10352-.0345.23292-.10351.38819-.0518.15528-.18117.24154-.3882.2588h-8.66961c-.17253,0-.30193-.07764-.38819-.23292-.069-.15528-.10352-.31918-.10352-.49171 0-.10352.0173-.22429.0518-.36231 .0518-.13802.18978-.21566.41407-.23292h2.84674v-14.62189h-2.8985c-.18978,1.6e-005-.31918-.069-.38819-.20704-.0518-.15526-.0776-.31054-.0776-.46583 0-.069.0173-.17251.0518-.31055 .10352-.20702.25017-.31916.43995-.33643h8.66961c.17252,1.7e-005 .29329.08628.36232.25879 .0863.15529.12938.29332.12939.41407-1e-005,.06903-.0259.1898-.0776.36231-.0345.17255-.16392.26744-.3882.28467h-2.84674"/>
  </g>
  <g transform="matrix(.24469 -.4228 1.7718 1.0254 0 0)" font-family="Ibarra" font-size="25.879" font-weight="bold" text-anchor="middle">
   <path d="m-144.02265,68.8436-4.37363,6.23695 4.6583,8.38494h2.97614c.15526,1e-006 .2674.07764.33643.23292 .069.13802.1035.28467.10352.43995-2e-005,.06901-.0259.18978-.0776.36231s-.18117.26742-.38819.28467h-8.10027c-.17254,0-.30193-.07764-.38819-.23292-.069-.15528-.10353-.31918-.10352-.49171-1e-005-.10352.0173-.22429.0518-.36231 .0517-.13802.18977-.21566.41407-.23292h1.75981l-3.1573-5.64172-3.95955,5.64172h1.70804c.17252,1e-006 .29329.07764.36231.23292 .069.13802.10351.28467.10352.43995-1e-005,.06901-.0259.18978-.0776.36231s-.18116.26742-.38819.28467h-5.69348c-.17253,0-.2933-.06901-.36231-.20704-.069-.15528-.10352-.31055-.10352-.46583 0-.06901.0259-.18978.0776-.36231s.18116-.26742.38819-.28467h2.84674l4.60654-6.5475-4.47714-8.07439h-2.7691c-.17253,1.6e-005-.2933-.069-.36231-.20704-.069-.15526-.10352-.31054-.10352-.46583 0-.06899.0259-.18977.0776-.36231s.18115-.2674.38819-.28467h7.99675c.18977,1.7e-005 .31054.07766.36231.23292 .069.13804.10351.27606.10352.41407-1e-005,.08628-.0345.22431-.10352.41407-.069.17255-.19842.25881-.38819.2588h-1.7598l2.95025,5.33117 3.7784-5.33117h-1.83744c-.17254,1.6e-005-.29331-.069-.36231-.20704-.069-.15526-.10353-.31054-.10352-.46583-1e-005-.06899.0259-.18977.0776-.36231s.18114-.2674.38819-.28467h5.71936c.17251,1.7e-005 .29328.07766.36231.23292 .069.13804.1035.28469.10352.43995-2e-005,.06903-.0259.1898-.0776.36231s-.18117.26744-.38819.28467h-2.79498"/>
  </g>
  <g transform="matrix(.00121 -.4885 2.0471 .00506 0 0)" font-family="Ibarra" font-size="25.879" font-weight="bold" text-anchor="middle">
   <path d="m-417.71061,33.13842v14.62189h2.8985c.20702,2e-006 .33642.07764.38819.23292 .0518.13803.0776.28468.0776.43995-1e-005,.10352-.0345.23292-.10352.38819-.0518.15528-.18117.24154-.38819.25879h-8.66962c-.17253,0-.30192-.07764-.38819-.23292-.069-.15528-.10352-.31918-.10352-.49171 0-.10352.0173-.22429.0518-.36231 .0518-.13802.18978-.21566.41407-.23292h2.84674v-14.62189h-2.89849c-.18979,1.6e-005-.31919-.069-.3882-.20704-.0518-.15526-.0776-.31054-.0776-.46583-1e-005-.069.0172-.17251.0517-.31055 .10352-.20702.25017-.31916.43996-.33643h8.66961c.17252,1.7e-005 .29329.08628.36231.25879 .0863.15529.12939.29332.1294.41407-1e-005,.06903-.0259.1898-.0776.36231-.0345.17255-.16391.26744-.38819.28467h-2.84674"/>
   <path d="m-397.85177,33.13842-4.37363,6.23695 4.6583,8.38494h2.97614c.15525,2e-006 .2674.07764.33643.23292 .069.13803.1035.28468.10352.43995-2e-005,.06901-.0259.18978-.0776.36231s-.18118.26742-.38819.28467h-8.10027c-.17254,0-.30194-.07764-.38819-.23292-.069-.15528-.10353-.31918-.10352-.49171-1e-005-.10352.0172-.22429.0518-.36231 .0518-.13802.18977-.21566.41407-.23292h1.7598l-3.15729-5.64172-3.95956,5.64172h1.70805c.17252,2e-006 .29329.07764.36231.23292 .069.13803.10351.28468.10352.43995-1e-005,.06901-.0259.18978-.0776.36231s-.18116.26742-.38819.28467h-5.69348c-.17253,0-.2933-.06901-.36231-.20704-.069-.15528-.10352-.31055-.10352-.46583 0-.06901.0259-.18978.0776-.36231s.18115-.26742.38819-.28467h2.84674l4.60654-6.5475-4.47714-8.07439h-2.7691c-.17254,1.6e-005-.29331-.069-.36232-.20704-.069-.15526-.10352-.31054-.10351-.46583-1e-005-.069.0259-.18977.0776-.36231s.18116-.2674.3882-.28467h7.99674c.18978,1.7e-005 .31055.07766.36232.23292 .069.13804.1035.27606.10351.41407-1e-005,.08628-.0345.22431-.10351.41407-.069.17255-.19842.25881-.38819.25879h-1.75981l2.95026,5.33117 3.7784-5.33117h-1.83744c-.17254,1.6e-005-.29331-.069-.36231-.20704-.069-.15526-.10353-.31054-.10352-.46583-1e-005-.069.0259-.18977.0776-.36231s.18114-.2674.38819-.28467h5.71936c.17251,1.7e-005 .29328.07766.36231.23292 .069.13804.1035.28469.10352.43995-2e-005,.06903-.0259.1898-.0776.36231s-.18118.26744-.38819.28467h-2.79498"/>
  </g>
  <g transform="matrix(.42376 .24303 -1.0184 1.7758 0 0)" font-family="Ibarra" font-size="25.879" font-weight="bold" text-anchor="middle">
   <path d="m561.21169-28.81988v14.62189h2.8985c.20702,1e-006 .33642.07764.38819.23292 .0517.13803.0776.28468.0776.43995-1e-005,.10352-.0345.23292-.10352.38819-.0518.15528-.18117.24154-.38819.2588h-8.66962c-.17253,0-.30192-.07764-.38819-.23292-.069-.15528-.10352-.31918-.10352-.49171 0-.10352.0173-.22429.0518-.36231 .0518-.13802.18978-.21566.41407-.23292h2.84674v-14.62189h-2.8985c-.18978,1.6e-005-.31918-.069-.38819-.20704-.0518-.15526-.0776-.31054-.0776-.46583 0-.069.0173-.17251.0518-.31055 .10352-.20702.25017-.31916.43995-.33643h8.66962c.17252,1.7e-005 .29329.08628.36231.25879 .0863.15529.12939.29332.1294.41407-1e-005,.06903-.0259.1898-.0776.36231-.0345.17255-.16391.26744-.38819.28467h-2.84674"/>
  </g>
  <g transform="matrix(.24276 .42391 -1.7764 1.0173 0 0)" font-family="Ibarra" font-size="25.879" font-weight="bold" text-anchor="middle">
   <path d="m553.72529-100.90715v14.62189h2.8985c.20702,1e-006 .33642.07764.38819.23292 .0517.13803.0776.28468.0776.43995-1e-005,.10352-.0345.23292-.10352.38819-.0518.15528-.18117.24154-.38819.2588h-8.66962c-.17253,0-.30192-.07764-.38819-.23292-.069-.15528-.10352-.31918-.10351-.49171-1e-005-.10352.0172-.22429.0517-.36231 .0518-.13802.18979-.21566.41408-.23292h2.84673v-14.62189h-2.89849c-.18979,2e-005-.31918-.069-.3882-.20703-.0518-.15526-.0776-.31054-.0776-.46583 0-.069.0172-.17252.0518-.31056 .10351-.20702.25016-.31916.43995-.33643h8.66961c.17252,2e-005 .29329.0863.36231.25879 .0863.1553.12939.29332.1294.41408-1e-005,.069-.0259.18979-.0776.36231-.0345.17254-.16391.26743-.38819.28467h-2.84674"/>
   <path d="m565.19919-100.90715v14.62189h2.8985c.20702,1e-006 .33642.07764.38819.23292 .0518.13803.0776.28468.0776.43995-2e-005,.10352-.0345.23292-.10352.38819-.0518.15528-.18117.24154-.38819.2588h-8.66962c-.17253,0-.30193-.07764-.38819-.23292-.069-.15528-.10352-.31918-.10352-.49171 0-.10352.0172-.22429.0518-.36231 .0518-.13802.18978-.21566.41407-.23292h2.84674v-14.62189h-2.8985c-.18978,2e-005-.31918-.069-.38819-.20703-.0518-.15526-.0776-.31054-.0776-.46583 0-.069.0173-.17252.0518-.31056 .10352-.20702.25017-.31916.43995-.33643h8.66962c.17252,2e-005 .29329.0863.36231.25879 .0863.1553.12939.29332.1294.41408-1e-005,.069-.0259.18979-.0776.36231-.0345.17254-.16392.26743-.38819.28467h-2.84674"/>
  </g>
  <g transform="matrix(.0014 .4885 -2.0471 .00585 0 0)" font-family="Ibarra" font-size="25.879" font-weight="bold" text-anchor="middle">
   <path d="m401.57712-161.6405v14.62189h2.8985c.20702,0 .33642.0776.38819.23291 .0518.13803.0776.28468.0776.43995-1e-005,.10352-.0345.23292-.10352.38819-.0518.15528-.18117.24155-.38819.2588h-8.66962c-.17253,0-.30192-.0776-.38819-.23292-.069-.15527-.10352-.31918-.10351-.49171-1e-005-.10351.0173-.22428.0518-.36231 .0518-.13802.18979-.21566.41408-.23291h2.84673v-14.62189h-2.89849c-.18979,2e-005-.31918-.069-.3882-.20703-.0518-.15526-.0776-.31054-.0776-.46583 0-.069.0173-.17252.0518-.31056 .10351-.20702.25016-.31916.43995-.33643h8.66961c.17252,2e-005 .29329.0863.36231.25879 .0863.1553.12939.29332.1294.41408-1e-005,.069-.0259.18979-.0776.36231-.0345.17254-.16391.26743-.38819.28467h-2.84674"/>
   <path d="m413.05101-161.6405v14.62189h2.8985c.20703,0 .33642.0776.38819.23291 .0518.13803.0776.28468.0776.43995-1e-005,.10352-.0345.23292-.10352.38819-.0518.15528-.18116.24155-.38819.2588h-8.66961c-.17253,0-.30193-.0776-.38819-.23292-.069-.15527-.10352-.31918-.10352-.49171 0-.10351.0172-.22428.0518-.36231 .0518-.13802.18978-.21566.41407-.23291h2.84674v-14.62189h-2.8985c-.18978,2e-005-.31918-.069-.38819-.20703-.0518-.15526-.0776-.31054-.0776-.46583 0-.069.0172-.17252.0518-.31056 .10352-.20702.25017-.31916.43995-.33643h8.66961c.17252,2e-005 .29329.0863.36232.25879 .0863.1553.12938.29332.12939.41408-1e-005,.069-.0259.18979-.0776.36231-.0345.17254-.16391.26743-.38819.28467h-2.84674"/>
   <path d="m424.52491-161.6405v14.62189h2.8985c.20702,0 .33642.0776.38819.23291 .0518.13803.0776.28468.0776.43995-1e-005,.10352-.0345.23292-.10352.38819-.0518.15528-.18117.24155-.38819.2588h-8.66962c-.17253,0-.30193-.0776-.38819-.23292-.069-.15527-.10352-.31918-.10352-.49171 0-.10351.0173-.22428.0518-.36231 .0518-.13802.18978-.21566.41407-.23291h2.84674v-14.62189h-2.8985c-.18978,2e-005-.31918-.069-.38819-.20703-.0518-.15526-.0776-.31054-.0776-.46583 0-.069.0173-.17252.0518-.31056 .10352-.20702.25017-.31916.43995-.33643h8.66962c.17252,2e-005 .29329.0863.36231.25879 .0863.1553.12939.29332.1294.41408-1e-005,.069-.0259.18979-.0776.36231-.0345.17254-.16391.26743-.38819.28467h-2.84674"/>
  </g>
  <g transform="matrix(-.24214 .42426 -1.7779 -1.0147 0 0)" font-family="Ibarra" font-size="25.879" font-weight="bold" text-anchor="middle">
   <path d="m138.26084-197.86718v14.62188h2.8985c.20702,0 .33642.0776.38819.23292 .0517.13802.0776.28467.0776.43995-1e-005,.10352-.0345.23291-.10352.38819-.0518.15528-.18116.24154-.38819.25879h-8.66961c-.17254,0-.30193-.0776-.3882-.23291-.069-.15528-.10351-.31918-.10351-.49171 0-.10352.0172-.22429.0517-.36231 .0518-.13802.18979-.21566.41408-.23292h2.84674v-14.62188h-2.8985c-.18979,1e-005-.31918-.069-.38819-.20704-.0518-.15526-.0776-.31054-.0776-.46583 0-.069.0173-.17251.0518-.31055 .10351-.20702.25016-.31917.43995-.33644h8.66961c.17252,2e-005 .29329.0863.36231.2588 .0863.15529.12939.29332.1294.41407-1e-005,.069-.0259.1898-.0776.36231-.0345.17255-.16391.26744-.38819.28468h-2.84674"/>
   <path d="m149.73474-197.86718v14.62188h2.89849c.20703,0 .33643.0776.3882.23292 .0517.13802.0776.28467.0776.43995-1e-005,.10352-.0345.23291-.10351.38819-.0518.15528-.18117.24154-.3882.25879h-8.66961c-.17253,0-.30193-.0776-.38819-.23291-.069-.15528-.10352-.31918-.10352-.49171 0-.10352.0172-.22429.0518-.36231 .0518-.13802.18978-.21566.41407-.23292h2.84674v-14.62188h-2.8985c-.18978,1e-005-.31918-.069-.38819-.20704-.0518-.15526-.0776-.31054-.0776-.46583 0-.069.0172-.17251.0518-.31055 .10352-.20702.25017-.31917.43995-.33644h8.66962c.17252,2e-005 .29329.0863.36231.2588 .0863.15529.12939.29332.1294.41407-1e-005,.069-.0259.1898-.0776.36231-.0345.17255-.16392.26744-.38819.28468h-2.84674"/>
   <path d="m161.20863-197.86718v14.62188h2.8985c.20702,0 .33642.0776.38819.23292 .0517.13802.0776.28467.0776.43995-1e-005,.10352-.0345.23291-.10352.38819-.0518.15528-.18116.24154-.38819.25879h-8.66961c-.17254,0-.30193-.0776-.3882-.23291-.069-.15528-.10351-.31918-.10351-.49171 0-.10352.0173-.22429.0518-.36231 .0517-.13802.18978-.21566.41407-.23292h2.84674v-14.62188h-2.8985c-.18979,1e-005-.31918-.069-.38819-.20704-.0518-.15526-.0776-.31054-.0776-.46583 0-.069.0173-.17251.0518-.31055 .10351-.20702.25016-.31917.43995-.33644h8.66961c.17252,2e-005 .29329.0863.36231.2588 .0863.15529.12939.29332.1294.41407-1e-005,.069-.0259.1898-.0776.36231-.0345.17255-.16391.26744-.38819.28468h-2.84674"/>
   <path d="m172.68253-197.86718v14.62188h2.89849c.20703,0 .33643.0776.3882.23292 .0517.13802.0776.28467.0776.43995-1e-005,.10352-.0345.23291-.10351.38819-.0518.15528-.18117.24154-.3882.25879h-8.66961c-.17253,0-.30193-.0776-.38819-.23291-.069-.15528-.10352-.31918-.10352-.49171 0-.10352.0172-.22429.0518-.36231 .0518-.13802.18978-.21566.41407-.23292h2.84674v-14.62188h-2.8985c-.18978,1e-005-.31918-.069-.38819-.20704-.0518-.15526-.0776-.31054-.0776-.46583 0-.069.0172-.17251.0518-.31055 .10352-.20702.25017-.31917.43995-.33644h8.66962c.17251,2e-005 .29329.0863.36231.2588 .0863.15529.12938.29332.12939.41407-1e-005,.069-.0259.1898-.0776.36231-.0345.17255-.16392.26744-.3882.28468h-2.84673"/>
  </g>
  <g transform="matrix(-.42394 .24271 -1.0171 -1.7766 0 0)" font-family="Ibarra" font-size="25.879" font-weight="bold" text-anchor="middle">
   <path d="m-146.99926-197.58822-6.18519,15.94174h-1.39749l-5.51232-15.94174h-2.8985c-.15528,1e-005-.26742-.069-.33643-.20704-.069-.15526-.10352-.31054-.10352-.46583 0-.069.0259-.18976.0776-.36231s.18116-.2674.38819-.28467h7.78971c.17253,1e-005 .2933.0863.36232.25879 .0863.15529.12939.29332.12939.41407 0,.069-.0259.1898-.0776.36231-.0345.17255-.16392.26744-.3882.28468h-1.7598l4.16659,12.16334 4.68418-12.16334h-1.83744c-.18979,1e-005-.31919-.069-.38819-.20704-.0518-.15526-.0776-.31054-.0776-.46583-1e-005-.069.0172-.17251.0518-.31055 .1035-.20702.25015-.31916.43995-.33643h4.63242c.17251,1e-005 .29328.0777.36231.23291 .069.13804.1035.28469.10352.43995-2e-005,.069-.0259.1898-.0776.36231s-.18117.26744-.38819.28468h-1.7598"/>
  </g>
  <g transform="matrix(-.4885 -.00178 .00746 -2.0471 0 0)" font-family="Ibarra" font-size="25.879" font-weight="bold" text-anchor="middle">
   <path d="m-410.06252-161.83659-6.18518,15.94174h-1.39749l-5.51233-15.94174h-2.89849c-.15528,2e-005-.26743-.069-.33644-.20704-.069-.15526-.10352-.31053-.10352-.46583 0-.069.0259-.18976.0776-.36231s.18116-.2674.38819-.28467h7.78972c.17252,2e-005 .29329.0863.36231.25879 .0863.1553.12939.29332.1294.41407-1e-005,.069-.0259.1898-.0776.36232-.0345.17254-.16391.26743-.38819.28467h-1.7598l4.16659,12.16334 4.68418-12.16334h-1.83745c-.18979,2e-005-.31919-.069-.38819-.20704-.0518-.15526-.0776-.31053-.0776-.46583-1e-005-.069.0172-.17251.0518-.31055 .10351-.20702.25016-.31916.43995-.33643h4.63243c.17251,2e-005 .29328.0777.36231.23291 .069.13804.1035.28469.10352.43995-2e-005,.069-.0259.1898-.0776.36232s-.18118.26743-.38819.28467h-1.75981"/>
   <path d="m-400.42687-161.83659v14.62189h2.8985c.20702,0 .33642.0776.38819.23291 .0517.13803.0776.28468.0776.43995-1e-005,.10352-.0345.23292-.10352.38819-.0518.15528-.18117.24155-.38819.2588h-8.66962c-.17253,0-.30193-.0776-.38819-.23292-.069-.15527-.10352-.31918-.10352-.49171 0-.10351.0172-.22428.0518-.36231 .0518-.13802.18978-.21566.41407-.23291h2.84674v-14.62189h-2.8985c-.18978,2e-005-.31918-.069-.38819-.20704-.0518-.15526-.0776-.31053-.0776-.46583 0-.069.0173-.17251.0518-.31055 .10352-.20702.25017-.31916.43995-.33643h8.66962c.17252,2e-005 .29329.0863.36231.25879 .0863.1553.12939.29332.1294.41407-1e-005,.069-.0259.1898-.0776.36232-.0345.17254-.16391.26743-.38819.28467h-2.84674"/>
  </g>
  <g transform="matrix(-.42216 -.24579 1.03 -1.7691 0 0)" font-family="Ibarra" font-size="25.879" font-weight="bold" text-anchor="middle">
   <path d="m-564.90463-99.72985-6.18519,15.94174h-1.39749l-5.51232-15.94174h-2.8985c-.15527,1.6e-005-.26742-.069-.33643-.20704-.069-.15526-.10352-.31054-.10352-.46583 0-.069.0259-.18977.0776-.36232s.18116-.2674.38819-.28467h7.78972c.17252,2e-005 .29329.0863.36231.2588 .0863.15529.12939.29331.1294.41407-1e-005,.069-.0259.1898-.0776.36231-.0345.17254-.16391.26743-.38819.28467h-1.75981l4.16659,12.16334 4.68418-12.16334h-1.83744c-.18979,1.6e-005-.31919-.069-.38819-.20704-.0518-.15526-.0776-.31054-.0776-.46583-1e-005-.069.0172-.17252.0518-.31056 .10351-.20701.25016-.31916.43995-.33643h4.63242c.17252,2e-005 .29329.0777.36232.23292 .069.13804.1035.28469.10351.43995-1e-005,.069-.0259.1898-.0776.36231s-.18118.26743-.3882.28467h-1.7598"/>
   <path d="m-555.26898-99.72985v14.62189h2.89849c.20703,2e-006 .33643.07764.3882.23292 .0517.13803.0776.28468.0776.43995-1e-005,.10352-.0345.23292-.10351.38819-.0518.15528-.18117.24154-.38819.25879h-8.66962c-.17253,0-.30193-.07764-.38819-.23292-.069-.15528-.10352-.31918-.10352-.49171 0-.10352.0172-.22429.0518-.36231 .0518-.13802.18978-.21566.41407-.23292h2.84674v-14.62189h-2.8985c-.18978,1.6e-005-.31918-.069-.38819-.20704-.0518-.15526-.0776-.31054-.0776-.46583 0-.069.0172-.17252.0518-.31056 .10352-.20701.25017-.31916.43995-.33643h8.66962c.17252,2e-005 .29329.0863.36231.2588 .0863.15529.12939.29331.1294.41407-1e-005,.069-.0259.1898-.0776.36231-.0345.17254-.16392.26743-.38819.28467h-2.84674"/>
   <path d="m-543.79509-99.72985v14.62189h2.8985c.20703,2e-006 .33642.07764.38819.23292 .0518.13803.0776.28468.0776.43995-1e-005,.10352-.0345.23292-.10352.38819-.0518.15528-.18116.24154-.38819.25879h-8.66961c-.17253,0-.30193-.07764-.38819-.23292-.069-.15528-.10352-.31918-.10352-.49171 0-.10352.0172-.22429.0518-.36231 .0517-.13802.18978-.21566.41407-.23292h2.84674v-14.62189h-2.8985c-.18979,1.6e-005-.31918-.069-.38819-.20704-.0518-.15526-.0776-.31054-.0776-.46583 0-.069.0172-.17252.0518-.31056 .10351-.20701.25016-.31916.43995-.33643h8.66961c.17252,2e-005 .29329.0863.36231.2588 .0863.15529.12939.29331.1294.41407-1e-005,.069-.0259.1898-.0776.36231-.0345.17254-.16391.26743-.38819.28467h-2.84674"/>
  </g>
  <g transform="matrix(-.24271 -.42394 1.7766 -1.0171 0 0)" font-family="Ibarra" font-size="25.879" font-weight="bold" text-anchor="middle">
   <path d="m-563.59335-27.76136-6.18519,15.94174h-1.39749l-5.51232-15.94174h-2.8985c-.15527,1.6e-005-.26742-.069-.33643-.20704-.069-.15526-.10352-.31054-.10352-.46583 0-.069.0259-.18977.0776-.36231s.18116-.2674.38819-.28467h7.78972c.17252,1.8e-005 .29329.08628.36231.2588 .0863.15529.12939.29332.1294.41407-1e-005,.06903-.0259.1898-.0776.36231-.0345.17255-.16391.26744-.38819.28467h-1.75981l4.16659,12.16334 4.68418-12.16334h-1.83744c-.18979,1.6e-005-.31919-.069-.38819-.20704-.0518-.15526-.0776-.31054-.0776-.46583-1e-005-.069.0172-.17251.0518-.31055 .10351-.20702.25016-.31916.43995-.33643h4.63242c.17251,1.8e-005 .29329.07766.36232.23292 .069.13804.10349.28469.10351.43995-2e-005,.06903-.0259.1898-.0776.36231s-.18118.26744-.3882.28467h-1.7598"/>
   <path d="m-553.9577-27.76136v14.62189h2.89849c.20703,2e-006 .33643.07764.3882.23292 .0517.13803.0776.28468.0776.43995-1e-005,.10352-.0345.23292-.10351.38819-.0518.15528-.18117.24154-.3882.2588h-8.66961c-.17253,0-.30193-.07764-.38819-.23292-.069-.15528-.10352-.31918-.10352-.49171 0-.10352.0172-.22429.0518-.36231 .0518-.13802.18978-.21566.41407-.23292h2.84674v-14.62189h-2.8985c-.18978,1.6e-005-.31918-.069-.38819-.20704-.0518-.15526-.0776-.31054-.0776-.46583 0-.069.0172-.17251.0518-.31055 .10352-.20702.25017-.31916.43995-.33643h8.66962c.17252,1.8e-005 .29329.08628.36231.2588 .0863.15529.12938.29332.1294.41407-2e-005,.06903-.0259.1898-.0776.36231-.0345.17255-.16392.26744-.38819.28467h-2.84674"/>
   <path d="m-542.48381-27.76136v14.62189h2.8985c.20703,2e-006 .33642.07764.38819.23292 .0518.13803.0776.28468.0776.43995-1e-005,.10352-.0345.23292-.10352.38819-.0518.15528-.18116.24154-.38819.2588h-8.66961c-.17253,0-.30193-.07764-.3882-.23292-.069-.15528-.10351-.31918-.10351-.49171 0-.10352.0172-.22429.0518-.36231 .0517-.13802.18978-.21566.41407-.23292h2.84674v-14.62189h-2.8985c-.18979,1.6e-005-.31918-.069-.38819-.20704-.0518-.15526-.0776-.31054-.0776-.46583 0-.069.0172-.17251.0518-.31055 .10351-.20702.25016-.31916.43995-.33643h8.66961c.17252,1.8e-005 .29329.08628.36231.2588 .0863.15529.12939.29332.1294.41407-1e-005,.06903-.0259.1898-.0776.36231-.0345.17255-.16391.26744-.38819.28467h-2.84674"/>
  </g>
 </g>
 <g transform="translate(-7.8596 171.78)">
  <path transform="matrix(.47387 0 0 .47387 282.93 187.97)" d="m-70 165c0 57.99-47.01 105-105 105s-105-47.01-105-105 47.01-105 105-105 105 47.01 105 105z" fill="#f9f9f9" stroke="#000" stroke-width=".43261"/>
  <path transform="matrix(.45724 0 0 .45724 280.02 190.71)" d="m-70 165c0 57.99-47.01 105-105 105s-105-47.01-105-105 47.01-105 105-105 105 47.01 105 105z" fill="none" stroke="#000" stroke-width=".44834"/>
  <path transform="matrix(.59006 0 0 .59006 84.198 177.92)" d="m197.14698,66.72324c0,.49139-.39834.88974-.88973.88974s-.88974-.39835-.88974-.88974 .39835-.88974.88974-.88974 .88973.39835.88973.88974z"/>
  <use transform="matrix(.35 0 0 .35 172.35 220.58)" width="400" height="400" xlink:href="#a"/>
  <use transform="matrix(.35 0 0 .35 172.3 269.45)" width="400" height="400" xlink:href="#a"/>
  <use transform="matrix(.35 0 0 .35 130 293.8)" width="400" height="400" xlink:href="#a"/>
  <use transform="matrix(.35 0 0 .35 87.73 220.63)" width="400" height="400" xlink:href="#a"/>
  <use transform="matrix(.35 0 0 .35 87.774 269.41)" width="400" height="400" xlink:href="#a"/>
  <path d="m249.48 260.96-1.7444 0.18334" fill="none" stroke="#000" stroke-width=".65"/>
  <path d="m248.67 255.82-1.7157 0.36468" fill="none" stroke="#000" stroke-width=".65"/>
  <path d="m247.32 250.78-1.6682 0.54202" fill="none" stroke="#000" stroke-width=".65"/>
  <path d="m245.45 245.92-1.6024 0.71342" fill="none" stroke="#000" stroke-width=".65"/>
  <path d="m240.24 236.91-1.4188 1.0313" fill="none" stroke="#000" stroke-width=".65"/>
  <path d="m236.97 232.86-1.3032 1.174" fill="none" stroke="#000" stroke-width=".65"/>
  <path d="m233.28 229.18-1.1734 1.3037" fill="none" stroke="#000" stroke-width=".65"/>
  <path d="m229.23 225.9-1.0306 1.4192" fill="none" stroke="#000" stroke-width=".65"/>
  <path d="m220.27 220.72-0.71476 1.6018" fill="none" stroke="#000" stroke-width=".65"/>
  <path d="m215.41 218.85-0.54341 1.6677" fill="none" stroke="#000" stroke-width=".65"/>
  <path d="m210.38 217.5-0.36611 1.7154" fill="none" stroke="#000" stroke-width=".65"/>
  <path d="m205.24 216.68-0.1848 1.7442" fill="none" stroke="#000" stroke-width=".65"/>
  <path d="m245.46 286.39-1.6025-0.71314" fill="none" stroke="#000" stroke-width=".65"/>
  <path d="m247.32 281.53-1.6682-0.54173" fill="none" stroke="#000" stroke-width=".65"/>
  <path d="m248.67 276.5-1.7157-0.36438" fill="none" stroke="#000" stroke-width=".65"/>
  <path d="m249.48 271.35-1.7444-0.18304" fill="none" stroke="#000" stroke-width=".65"/>
  <path d="m229.22 306.43-1.03-1.4197" fill="none" stroke="#000" stroke-width=".65"/>
  <path d="m233.27 303.16-1.1728-1.3043" fill="none" stroke="#000" stroke-width=".65"/>
  <path d="m236.95 299.48-1.3027-1.1746" fill="none" stroke="#000" stroke-width=".65"/>
  <path d="m240.23 295.43-1.4183-1.032" fill="none" stroke="#000" stroke-width=".65"/>
  <path d="m205.23 315.64-0.18421-1.7443" fill="none" stroke="#000" stroke-width=".65"/>
  <path d="m210.37 314.82-0.36552-1.7155" fill="none" stroke="#000" stroke-width=".65"/>
  <path d="m215.4 313.47-0.54284-1.6679" fill="none" stroke="#000" stroke-width=".65"/>
  <path d="m220.26 311.6-0.71421-1.602" fill="none" stroke="#000" stroke-width=".65"/>
  <path d="m150.51 271.31 1.7446-0.18134" fill="none" stroke="#000" stroke-width=".65"/>
  <path d="m151.32 276.45 1.7161-0.36271" fill="none" stroke="#000" stroke-width=".65"/>
  <path d="m152.66 281.48 1.6688-0.54011" fill="none" stroke="#000" stroke-width=".65"/>
  <path d="m154.53 286.35 1.6032-0.71158" fill="none" stroke="#000" stroke-width=".65"/>
  <path d="m159.72 295.37 1.42-1.0297" fill="none" stroke="#000" stroke-width=".65"/>
  <path d="m163 299.42 1.3046-1.1725" fill="none" stroke="#000" stroke-width=".65"/>
  <path d="m166.67 303.1 1.1748-1.3024" fill="none" stroke="#000" stroke-width=".65"/>
  <path d="m170.72 306.39 1.0323-1.4181" fill="none" stroke="#000" stroke-width=".65"/>
  <path d="m179.67 311.57 0.71659-1.601" fill="none" stroke="#000" stroke-width=".65"/>
  <path d="m184.53 313.45 0.54532-1.6671" fill="none" stroke="#000" stroke-width=".65"/>
  <path d="m189.56 314.81 0.36807-1.7149" fill="none" stroke="#000" stroke-width=".65"/>
  <path d="m194.7 315.63 0.1868-1.744" fill="none" stroke="#000" stroke-width=".65"/>
  <path d="m154.57 245.88 1.6017 0.71498" fill="none" stroke="#000" stroke-width=".65"/>
  <path d="m152.7 250.74 1.6676 0.54363" fill="none" stroke="#000" stroke-width=".65"/>
  <path d="m151.34 255.77 1.7153 0.36635" fill="none" stroke="#000" stroke-width=".65"/>
  <path d="m150.52 260.91 1.7442 0.18504" fill="none" stroke="#000" stroke-width=".65"/>
  <path d="m170.83 225.86 1.0284 1.4209" fill="none" stroke="#000" stroke-width=".65"/>
  <path d="m166.78 229.13 1.1713 1.3056" fill="none" stroke="#000" stroke-width=".65"/>
  <path d="m163.09 232.8 1.3013 1.176" fill="none" stroke="#000" stroke-width=".65"/>
  <path d="m159.8 236.84 1.4171 1.0336" fill="none" stroke="#000" stroke-width=".65"/>
  <g font-family="Ibarra" font-size="12" font-weight="bold" text-anchor="middle">
   <path d="m198.69356,224.76687c-1e-005-.56-.10001-1.016-.3-1.368-.19201-.352-.51201-.528-.96-.528-.424,0-.74.188-.948.564-.208.368-.312.812-.312,1.332 0,.48.108.888.324,1.224 .224.32.536.48.936.48 .40799,0 .71999-.156.936-.468s.32399-.724.324-1.236m.912,0c-1e-005,.448-.10401.848-.312,1.2s-.48801.636-.84.852-.71601.324-1.092.324c-.392,0-.756-.104-1.092-.312s-.62-.496-.852-.864c-.208-.368-.312-.764-.312-1.188 0-.56.104-1.096.312-1.608 .208-.52.468-.984.78-1.392 .312-.416.592-.74.84-.972l.792-.708c.52799-.42399.87999-.69199 1.056-.804s.30799-.16799.372-.168c.10399,1e-005 .17599.036.216.108s.06.12801.06.168c-1e-005,.056-.036.12801-.108.216-.064.08-.24001.22801-.528.444l-.948.768c-.68.592-1.204,1.224-1.572,1.896 .296-.16.62-.24.972-.24 .37599,0 .73599.1 1.08.3 .34399.192.62399.464.84.816s.33599.74.336,1.164"/>
   <path d="m202.65506,222.49887c.376,0 .72399.104 1.044.312 .32799.2.58799.484.78.852 .19199.36.28799.748.288,1.164-1e-005,.4-.092.78-.276,1.14s-.44001.648-.768.864c-.32801.208-.684.312-1.068.312-.568,0-1.064-.228-1.488-.684s-.624-1-.624-1.632c0-.416.092-.8.276-1.152 .192-.36.452-.648.78-.864 .344-.208.696-.312 1.056-.312m-.012.444c-.712,0-1.068.62-1.068,1.86 0,1.232.356,1.848 1.068,1.848 .408,0 .68799-.168.84-.504s.22799-.784.228-1.344c-1e-005-.584-.076-1.04-.228-1.368-.14401-.328-.42401-.492-.84-.492"/>
  </g>
  <g transform="rotate(60)" font-family="Ibarra" font-size="12" font-weight="bold" text-anchor="middle">
   <path d="m328.52909-82.44289h.564c.08,0 .136.04.168.12 .04.072.06.136.06.192 0,.032-.012.088-.036.168s-.076.124-.18.132h-2.34c-.088,0-.148-.032-.18-.096-.024-.072-.036-.144-.036-.216 0-.032.008-.08.024-.144 .048-.096.116-.148.204-.156h.576v-3.408h-.588c-.08,4e-006-.136-.032-.168-.096-.032-.072-.048-.144-.048-.216 0-.032.012-.088.036-.168s.084-.124.18-.132h2.34c.096,4e-006 .156.036.18.108 .024.064.036.132.036.204 0,.048-.016.108-.048.18-.024.072-.084.112-.18.12h-.564v3.408"/>
   <path d="m332.37565-86.47489c.376,4e-006 .724.104 1.044.312 .328.2.588.484.78.852 .192.36.288.748.288,1.164 0,.4-.092.78-.276,1.14s-.44.648-.768.864c-.328.208-.684.312-1.068.312-.568,0-1.064-.228-1.488-.684s-.624-1-.624-1.632c0-.416.092-.8.276-1.152 .192-.36.452-.648.78-.864 .344-.208.696-.312 1.056-.312m-.012.444c-.712,4e-006-1.068.62-1.068,1.86 0,1.232.356,1.848 1.068,1.848 .408,0 .688-.168.84-.504s.228-.784.228-1.344c0-.584-.076-1.04-.228-1.368-.144-.328-.424-.492-.84-.492"/>
  </g>
  <g transform="matrix(-.5,.86603,-.86603,-.5,0,0)" font-family="Ibarra" font-size="12" font-weight="bold" text-anchor="middle">
   <path d="m125.59231-351.05029c0-.376.244-.74.732-1.092 .496-.36 1.012-.54 1.548-.54 .512,0 .952.144 1.32.432 .376.28.564.616.564,1.008 0,.36-.136.672-.408.936l-1.62,1.2h1.14c.296,0 .532-.076.708-.228s.32-.228.408-.228c.048,0 .1.036.156.108 .064.064.096.148.096.252 0,.312-.336.696-1.008,1.152h-3.048c-.184,0-.32-.016-.408-.048-.08-.032-.132-.116-.156-.252 0-.088.016-.144.048-.168l.42-.096c.248-.048.436-.116.564-.204l1.524-1.152c.256-.232.384-.516.384-.852 0-.296-.1-.552-.3-.768-.192-.224-.436-.336-.732-.336-.152,0-.296.048-.432.144-.128.088-.28.232-.456.432l-.312.348c-.128.112-.28.168-.456.168-.16,0-.252-.072-.276-.216"/>
   <path d="m133.30588-352.69429c.37599,0 .72399.104 1.044.312 .32799.2.58799.484.78.852 .19199.36.28799.748.288,1.164-1e-005,.4-.092.78-.276,1.14s-.44001.648-.768.864c-.32801.208-.68401.312-1.068.312-.56801,0-1.06401-.228-1.488-.684s-.624-1-.624-1.632c0-.416.092-.8.276-1.152 .19199-.36.45199-.648.78-.864 .34399-.208.69599-.312 1.056-.312m-.012.444c-.71201,0-1.06801.62-1.068,1.86-1e-005,1.232.35599,1.848 1.068,1.848 .40799,0 .68799-.168.84-.504s.22799-.784.228-1.344c-1e-005-.584-.076-1.04-.228-1.368-.14401-.328-.42401-.492-.84-.492"/>
  </g>
  <g transform="matrix(-.96593,-.25882,.25882,-.96593,0,0)" font-family="Ibarra" font-size="12" font-weight="bold" text-anchor="middle">
   <path d="m-274.89249-246.12224c.192-.024.364-.036.516-.036 .4,0 .68.084.84.252 .16.16.24.464.24.912 0,.4-.08.828-.24,1.284-.136.448-.28.784-.432,1.008s-.424.468-.816.732c-.384.27199-.72.43599-1.008.492s-.484.084-.588.084c-.288-1e-005-.572-.088-.852-.264-.2-.14401-.3-.34001-.3-.588 .024-.232.12-.416.288-.552 .176-.128.332-.192.468-.192 .064,0 .14.012.228.036 .088.032.224.132.408.3 .192.176.364.276.516.3 .16,0 .336-.104.528-.312 .2-.2.328-.432.384-.696s.096-.488.096-.672c0-.056-.004-.12-.012-.192 0-.064-.024-.2-.072-.408s-.164-.34-.348-.396l-.66.024-.936.012c-.216,0-.324-.048-.324-.144 0-.12.06-.2.18-.24s.208-.072.264-.096c.064-.032.144-.084.24-.156l1.428-1.176c.24-.216.36-.484.36-.804 0-.256-.152-.452-.456-.588s-.612-.216-.948-.216c-.152,0-.312.036-.48.108l-.384.156-.228.06c-.096.008-.176-.048-.24-.168-.072-.168.04-.316.336-.444s.572-.232.804-.312l.648-.216c.208-.064.352-.1.432-.108 .08-.016.164-.024.252-.024 .144,0 .32.04.528.12 .216.072.392.204.528.396 .136.184.228.336.276.456s.072.248.072.384c0,.328-.132.624-.396.888l-1.14.996"/>
   <path d="m-270.2408-249.39824c.376,0 .724.104 1.044.312 .32799.2.58799.484.78.852 .19199.36.28799.748.288,1.164-1e-005,.4-.092.78-.276,1.14s-.44001.648-.768.864c-.328.208-.684.312-1.068.312-.568,0-1.064-.228-1.488-.684s-.624-1-.624-1.632c0-.416.092-.8.276-1.152 .192-.36.452-.648.78-.864 .344-.208.696-.312 1.056-.312m-.012.444c-.712,0-1.068.62-1.068,1.86 0,1.232.356,1.848 1.068,1.848 .408,0 .688-.168.84-.504s.22799-.784.228-1.344c-1e-005-.584-.076-1.04-.228-1.368-.144-.328-.424-.492-.84-.492"/>
  </g>
  <g transform="matrix(-.5,-.86603,.86603,-.5,0,0)" font-family="Ibarra" font-size="12" font-weight="bold" text-anchor="middle">
   <path d="m-332.43932-1.96112v-2.196l-1.668,2.196h1.668m1.056,3.96c-1e-005,.192-.064.312-.192.36-.12001.056-.23201.084-.336.084-.088-3.4e-006-.20001-.028-.336-.084-.12801-.048-.19201-.168-.192-.36v-2.916h-2.88v-.384l3.192-4.248h.732v3.588h.624c.088,1.1e-006 .24399-.072.468-.216s.38399-.236.48-.276c.096-.048.18799-.024.276.072 .088.088.13199.188.132.3-1e-005,.32-.33601.708-1.008,1.164h-.96v2.916"/>
   <path d="m-326.45732-5.56112c.37599,4.7e-006 .72399.104 1.044.312 .32799.2.58799.484.78.852 .19199.36.28799.748.288,1.164-1e-005,.4-.092.78-.276,1.14s-.44001.648-.768.864c-.32801.208-.68401.312-1.068.312-.56801,0-1.064-.228-1.488-.684s-.624-1-.624-1.632c0-.416.092-.8.276-1.152 .192-.36.452-.648.78-.864 .344-.208.69599-.312 1.056-.312m-.012.444c-.712,4.2e-006-1.068.62-1.068,1.86 0,1.232.356,1.848 1.068,1.848 .40799,5e-007 .68799-.168.84-.504s.22799-.784.228-1.344c-1e-005-.584-.076-1.04-.228-1.368-.14401-.328-.42401-.492-.84-.492"/>
  </g>
  <g transform="matrix(.70711,-.70711,.70711,.70711,0,0)" font-family="Ibarra" font-size="12" font-weight="bold" text-anchor="middle">
   <path d="m-60.30108,288.14679 .996-.384c.056-.024.128-.04.216-.048 .096-.008.196-.012.3-.012h.216c.288.04.50399.14.648.3 .144.152.21599.452.216.9-5e-006,.4-.08.828-.24,1.284-.136.448-.28.784-.432,1.008s-.424.472-.816.744-.732.432-1.02.48c-.28.048-.472.072-.576.072-.288,0-.528-.06-.72-.18s-.312-.232-.36-.336-.072-.2-.072-.312c0-.232.088-.416.264-.552s.344-.204.48-.204c.064,0 .14.012.228.036 .096.032.236.136.42.312 .184.16.36.252.528.276 .152,0 .328-.104.528-.312s.324-.44.372-.696c.056-.256.084-.476.084-.66-4e-006-.152-.012-.308-.036-.468-.064-.304-.192-.484-.384-.54-.104-.04-.38-.004-.828.108-.448.104-.744.156-.888.156-.088,0-.132-.016-.132-.048l.792-2.712c.184-.624.396-1.064.636-1.32 .248-.26399.532-.43199.852-.504 .112-.016.196-.024.252-.024 .208,1e-005 .404.06.588.18s.292.26401.324.432c.03999.16.06.272.06.336-5e-006,.12-.03601.24-.108.36s-.20801.192-.408.216c-.2,0-.392-.064-.576-.192s-.316-.192-.396-.192h-.072l-.12.06c-.048.016-.108.104-.18.264l-.264.768-.372,1.404"/>
   <path d="m-54.65339,284.49879c.376,1e-005 .724.10401 1.044.312 .328.20001.588.484.78.852 .192.36.288.748.288,1.164-4e-006,.4-.092.78-.276,1.14s-.44.648-.768.864c-.328.208-.684.312-1.068.312-.568,0-1.064-.228-1.488-.684s-.624-1-.624-1.632c-1e-006-.416.092-.8.276-1.152 .192-.36.452-.64799.78-.864 .344-.20799.696-.31199 1.056-.312m-.012.444c-.712,1e-005-1.068.62-1.068,1.86-2e-006,1.232.356,1.848 1.068,1.848 .408,0 .688-.168.84-.504s.228-.784.228-1.344c-4e-006-.584-.076-1.04-.228-1.368-.144-.32799-.424-.49199-.84-.492"/>
  </g>
  <path d="m194.83 216.68 0.18221 1.7445" fill="none" stroke="#000" stroke-width=".65"/>
  <path d="m189.69 217.49 0.36356 1.7159" fill="none" stroke="#000" stroke-width=".65"/>
  <path d="m184.66 218.83 0.54093 1.6685" fill="none" stroke="#000" stroke-width=".65"/>
  <path d="m179.79 220.7 0.71238 1.6028" fill="none" stroke="#000" stroke-width=".65"/>
  <path id="b" d="m224.9 223.08-3.3501 5.7546" fill="none" stroke="#000" stroke-width=".84969"/>
  <use transform="matrix(.50031 .86585 -.86585 .50031 330.39 -40.172)" width="400" height="400" xlink:href="#b"/>
  <use transform="matrix(-.49881 .86671 -.86671 -.49881 530.45 225.58)" width="400" height="400" xlink:href="#b"/>
  <use transform="matrix(.49947 -.86633 .86633 .49947 -130.48 306.49)" width="400" height="400" xlink:href="#b"/>
  <use transform="matrix(-.50085 -.86554 .86554 -.50085 69.799 572.57)" width="400" height="400" xlink:href="#b"/>
  <use transform="matrix(-1 .00030778 -.00030778 -1 400.08 532.26)" width="400" height="400" xlink:href="#b"/>
 </g>
 <g transform="translate(-7.8596 171.78)" fill="#333" text-anchor="middle">
  <g font-family="FreeSerif" font-size="14">
   <path d="m159.79398,151.9912h-.756c-.78401,1e-005-1.31134.10735-1.582.322-.26134.21468-.476.70468-.644,1.47h-.336l.084-2.38h7.896l.084,2.38h-.336c-.15868-.77466-.37334-1.26465-.644-1.47-.26134-.21465-.78868-.32199-1.582-.322h-.756v7.154c-1e-005,.51334.0793.84467.238.994s.52732.238 1.106.266v.266h-4.088v-.266c.57866-.0373.94266-.13066 1.092-.28 .14933-.15866.22399-.53666.224-1.134v-7"/>
   <path d="m166.99457,155.8692v3.374c0,.48534.056.798.168.938s.37333.23334.784.28v.21h-3.024v-.21c.40133-.056.64867-.14933.742-.28 .10267-.13066.154-.44333.154-.938v-6.594c0-.29865-.0467-.48999-.14-.574-.084-.0933-.27533-.13999-.574-.14-.0747,1e-005-.13067.005-.168.014v-.224l.378-.112c.63467-.17732 1.17133-.34532 1.61-.504l.07.042v4.256c.32666-.41999.64866-.71866.966-.896 .31733-.18666.68133-.27999 1.092-.28 1.14799,1e-005 1.72199.74201 1.722,2.226v2.786c-1e-005,.48534.042.79334.126.924 .0933.12134.33133.21934.714.294v.21h-2.968v-.21c.40133-.0373.658-.13066.77-.28 .12133-.14933.182-.462.182-.938v-2.772c0-.98932-.35-1.48399-1.05-1.484-.27067,1e-005-.52734.07-.77.21-.23334.13068-.49467.35468-.784.672"/>
   <path d="m175.21454,154.2312c.89599,1e-005 1.63333.29868 2.212.896s.86799,1.35334.868,2.268c-1e-005,.97067-.29867,1.78267-.896,2.436s-1.33467.98-2.212.98-1.61-.31266-2.198-.938c-.57867-.63466-.868-1.42333-.868-2.366 0-.96133.28466-1.74532.854-2.352 .57866-.61599 1.32533-.92399 2.24-.924m-1.834,2.59c0,.99867.182,1.84801.546,2.548s.84,1.05 1.428,1.05c.52266,0 .93333-.224 1.232-.672s.44799-1.06866.448-1.862c-1e-005-.96133-.18667-1.74533-.56-2.352s-.85401-.90999-1.442-.91c-.49467,1e-005-.896.20068-1.204.602-.29867.40134-.448.93334-.448,1.596"/>
   <path d="m178.76179,155.0992v-.238c.672-.18666 1.32533-.39666 1.96-.63l.098.028v1.05c.57866-.43866 1.008-.72799 1.288-.868s.57399-.20999.882-.21c.73733,1e-005 1.23199.39201 1.484,1.176 .72799-.78399 1.48866-1.17599 2.282-1.176 1.08266,1e-005 1.62399.83068 1.624,2.492v2.884c-1e-005,.52267.20066.798.602.826l.364.028v.21h-3.066v-.21c.41066-.0467.66732-.126.77-.238s.15399-.36866.154-.77v-2.954c-1e-005-.57866-.0747-.97999-.224-1.204s-.42468-.33599-.826-.336c-.61601,1e-005-1.12467.28468-1.526.854v3.528c-1e-005,.43867.0653.73267.196.882 .13999.14934.41066.22867.812.238v.21h-3.136v-.21c.40133-.028.65799-.10266.77-.224 .12133-.12133.18199-.378.182-.77v-3.038c-1e-005-.97999-.30801-1.46999-.924-1.47-.24267,1e-005-.49934.056-.77.168-.27067.10268-.49467.23334-.672.392-.14.14001-.21.22868-.21.266v3.948c0,.27067.0653.45734.196.56 .13066.0933.38266.14934.756.168v.21h-3.108v-.21c.392-.009.65333-.0793.784-.21s.196-.38733.196-.77v-3.542c0-.33599-.0373-.56932-.112-.7s-.19134-.19599-.378-.196c-.14,1e-005-.28934.0187-.448.056"/>
   <path d="m189.62316,159.3132c0-.35466.098-.67666.294-.966 .20534-.28933.47134-.52266.798-.7 .336-.18666.70933-.36866 1.12-.546 .42-.18666.84933-.35933 1.288-.518v-.854c0-.77466-.35467-1.16199-1.064-1.162-.28,1e-005-.518.07-.714.21-.196.13068-.294.28934-.294.476 0,.0747.009.17734.028.308 .028.13068.042.21468.042.252 0,.15867-.0653.29867-.196.42-.12133.11201-.266.16801-.434.168-.15866,1e-005-.29866-.0607-.42-.182s-.182-.26133-.182-.42c0-.43866.224-.80732.672-1.106 .45733-.30799 1.01733-.46199 1.68-.462 .76533,1e-005 1.29267.18668 1.582.56 .28933.36401.434.92401.434,1.68v2.73c0,.308.028.52267.084.644 .0653.112.17733.168.336.168 .196,0 .40133-.0887.616-.266v.364c-.24267.27067-.45734.45734-.644.56-.17734.0933-.38267.14-.616.14-.28933,0-.504-.0793-.644-.238-.13067-.15866-.21467-.42-.252-.784-.80267.68134-1.484,1.022-2.044,1.022-.42933,0-.784-.14-1.064-.42-.27066-.28-.406-.63933-.406-1.078m3.5-.364v-2.03c-.84.30801-1.428.60667-1.764.896s-.504.63934-.504,1.05v.056c0,.29867.084.55534.252.77 .17733.20534.38733.308.63.308 .31733,0 .658-.10733 1.022-.322 .14933-.084.24733-.17266.294-.266s.07-.24733.07-.462"/>
   <path d="m199.01476,154.5112c.009,1e-005 .084-.0467.224-.14h.154l.056,1.904h-.21c-.15867-.62532-.35467-1.06866-.588-1.33s-.55067-.39199-.952-.392c-.31734,1e-005-.57867.0887-.784.266-.196.17734-.294.40601-.294.686 0,.40134.20066.71867.602.952l1.512.896c.41999.25201.71866.50867.896.77 .18666.25201.27999.55067.28.896-1e-005,.48534-.19601.90534-.588,1.26-.38267.35467-.84467.532-1.386.532-.23334,0-.54601-.042-.938-.126s-.63467-.126-.728-.126c-.14,0-.24734.056-.322.168h-.182v-2.184h.224c.009.0933.0327.21001.07.35 .0467.13067.0887.27067.126.42 .0467.14.11666.28.21.42s.196.27067.308.392c.112.112.26133.20534.448.28s.39199.098.616.098c.35466,0 .63466-.0887.84-.266 .21466-.18666.32199-.434.322-.742-1e-005-.41999-.24267-.76999-.728-1.05l-.812-.462c-.59734-.33599-1.022-.65799-1.274-.966-.24267-.30799-.364-.65799-.364-1.05 0-.50399.17733-.91466.532-1.232 .364-.32666.82133-.48999 1.372-.49 .30799,1e-005 .59733.0467.868.14 .27066.084.43399.12601.49.126"/>
   <path d="m210.32216,151.6832c.35466.31735.532.72335.532,1.218s-.16334.92401-.49,1.288-.88667.73268-1.68,1.106c.56,1.09201 1.176,2.05334 1.848,2.884 .84933-1.12933 1.274-1.97866 1.274-2.548 0-.21466-.0653-.36399-.196-.448-.12134-.084-.35467-.14466-.7-.182v-.294h3.024v.294c-.35467.0467-.62067.12601-.798.238-.17734.10268-.35001.29868-.518.588l-.364.644c-.37334.64401-.84,1.34401-1.4,2.1 .644.85867 1.36266,1.288 2.156,1.288 .25199,0 .46666-.0513.644-.154 .18666-.112.39199-.308.616-.588l.21.154c-.20534.49467-.49934.882-.882,1.162-.37334.28-.78401.42-1.232.42-.76534,0-1.55867-.42466-2.38-1.274-.52267.45734-1.01733.784-1.484.98-.45733.196-.97067.294-1.54.294-.74667,0-1.33466-.18666-1.764-.56-.42-.38266-.63-.90533-.63-1.568 0-1.17599.73267-2.18399 2.198-3.024l.532-.308c-.32667-.90532-.49-1.58199-.49-2.03 0-.59732.21-1.10599.63-1.526s.92867-.62999 1.526-.63c.55066,1e-005 1.00333.15868 1.358.476m-1.848,3.164c.56933-.30799.98466-.62066 1.246-.938s.392-.67199.392-1.064c0-.34532-.10734-.62999-.322-.854s-.47134-.33599-.798-.336c-.31733,1e-005-.57867.10735-.784.322-.196.21468-.294.49001-.294.826 0,.57868.18667,1.26001.56,2.044m-.966,1.022c-.60667.39201-1.036.76067-1.288,1.106-.24267.33601-.364.72801-.364,1.176 0,.54134.17733,1.00801.532,1.4 .35467.38267.77933.574 1.274.574 .55067,0 1.20867-.30333 1.974-.91-.69067-.84933-1.4-1.96466-2.128-3.346"/>
   <path d="m222.46498,151.4032c.40132,1e-005 .78399.0327 1.148.098s.73732.18201 1.12.35c.39199.15868.70466.41068.938.756s.34999.76534.35,1.26c-1e-005,.23334-.028.45268-.084.658-.056.19601-.13534.36401-.238.504-.0933.14001-.20534.27068-.336.392-.12134.12134-.25201.21934-.392.294l-.434.21c-.14001.0653-.28001.11201-.42.14l-.364.084c-.10268.028-.19134.0467-.266.056l2.884,3.542c.19599.23334.37799.39667.546.49 .17732.0933.40132.14934.672.168v.266h-2.254l-3.332-4.312-.784.028v2.758c-1e-005,.504.0747.83067.224.98s.49466.24267 1.036.28v.266h-3.878v-.266c.52266-.0373.84933-.13533.98-.294 .13999-.168.20999-.54133.21-1.12v-6.062c-1e-005-.49465-.07-.81199-.21-.952-.13067-.14932-.45734-.25199-.98-.308v-.266h3.864m-1.246,4.466c1.12933-.0187 1.95532-.16799 2.478-.448 .53199-.27999.79799-.80732.798-1.582-1e-005-.65332-.21001-1.13399-.63-1.442-.41068-.31732-1.05468-.47599-1.932-.476-.28001,1e-005-.47134.0374-.574.112-.0933.0653-.14001.19601-.14.392v3.444"/>
   <path d="m230.66766,154.2312c.896,1e-005 1.63333.29868 2.212.896s.868,1.35334.868,2.268c0,.97067-.29867,1.78267-.896,2.436s-1.33467.98-2.212.98-1.61-.31266-2.198-.938c-.57866-.63466-.868-1.42333-.868-2.366 0-.96133.28467-1.74532.854-2.352 .57867-.61599 1.32533-.92399 2.24-.924m-1.834,2.59c0,.99867.182,1.84801.546,2.548s.84,1.05 1.428,1.05c.52267,0 .93333-.224 1.232-.672s.448-1.06866.448-1.862c0-.96133-.18667-1.74533-.56-2.352s-.854-.90999-1.442-.91c-.49467,1e-005-.896.20068-1.204.602-.29866.40134-.448.93334-.448,1.596"/>
   <path d="m237.73351,154.5112c.009,1e-005 .084-.0467.224-.14h.154l.056,1.904h-.21c-.15867-.62532-.35467-1.06866-.588-1.33s-.55067-.39199-.952-.392c-.31734,1e-005-.57867.0887-.784.266-.196.17734-.294.40601-.294.686 0,.40134.20066.71867.602.952l1.512.896c.41999.25201.71866.50867.896.77 .18666.25201.27999.55067.28.896-1e-005,.48534-.19601.90534-.588,1.26-.38267.35467-.84467.532-1.386.532-.23334,0-.54601-.042-.938-.126s-.63467-.126-.728-.126c-.14,0-.24734.056-.322.168h-.182v-2.184h.224c.009.0933.0327.21001.07.35 .0467.13067.0887.27067.126.42 .0467.14.11666.28.21.42s.196.27067.308.392c.112.112.26133.20534.448.28s.39199.098.616.098c.35466,0 .63466-.0887.84-.266 .21466-.18666.32199-.434.322-.742-1e-005-.41999-.24267-.76999-.728-1.05l-.812-.462c-.59734-.33599-1.022-.65799-1.274-.966-.24267-.30799-.364-.65799-.364-1.05 0-.50399.17733-.91466.532-1.232 .364-.32666.82133-.48999 1.372-.49 .30799,1e-005 .59733.0467.868.14 .27066.084.43399.12601.49.126"/>
   <path d="m242.62804,154.5112c.009,1e-005 .084-.0467.224-.14h.154l.056,1.904h-.21c-.15867-.62532-.35467-1.06866-.588-1.33s-.55067-.39199-.952-.392c-.31734,1e-005-.57867.0887-.784.266-.196.17734-.294.40601-.294.686 0,.40134.20066.71867.602.952l1.512.896c.41999.25201.71866.50867.896.77 .18666.25201.27999.55067.28.896-1e-005,.48534-.19601.90534-.588,1.26-.38267.35467-.84467.532-1.386.532-.23334,0-.546-.042-.938-.126s-.63467-.126-.728-.126c-.14,0-.24734.056-.322.168h-.182v-2.184h.224c.009.0933.0327.21001.07.35 .0467.13067.0887.27067.126.42 .0467.14.11666.28.21.42s.196.27067.308.392c.112.112.26133.20534.448.28s.392.098.616.098c.35466,0 .63466-.0887.84-.266 .21466-.18666.32199-.434.322-.742-1e-005-.41999-.24267-.76999-.728-1.05l-.812-.462c-.59734-.33599-1.022-.65799-1.274-.966-.24267-.30799-.364-.65799-.364-1.05 0-.50399.17733-.91466.532-1.232 .364-.32666.82133-.48999 1.372-.49 .308,1e-005 .59733.0467.868.14 .27066.084.43399.12601.49.126"/>
  </g>
  <g transform="translate(3.2367)" font-family="FreeSans" font-size="11">
   <path d="m166.7 164.42v8.019h-1.155l-4.147-6.501v6.501h-0.968v-8.019h1.111l4.191 6.556v-6.556h0.968"/>
   <path d="m173.1907,169.86941h-4.246c.007.528.11.93866.308,1.232 .31533.49866.77733.748 1.386.748 .748,0 1.25033-.385 1.507-1.155h.924c-.11734.63066-.39234,1.122-.825,1.474s-.979.52799-1.639.528c-.80667-1e-005-1.44467-.27134-1.914-.814-.46934-.55-.704-1.298-.704-2.244s.23833-1.70133.715-2.266c.484-.572 1.12566-.858 1.925-.858 .54266,0 1.01933.13567 1.43.407 .41799.27133.71866.64167.902,1.111 .15399.40333.23099,1.01567.231,1.837m-4.224-.748h3.234c.007-.0147.011-.0367.011-.066-1e-005-.47667-.15401-.87633-.462-1.199-.308-.33-.68567-.495-1.133-.495-.462,0-.84334.16133-1.144.484s-.46934.74067-.506,1.276"/>
   <path d="m179.66 172.44h-1.045l-1.166-4.521-1.111 4.521h-1.034l-1.672-5.764h1.012l1.177 4.488 1.1-4.488h1.122l1.133 4.488 1.144-4.488h1.034l-1.694 5.764"/>
   <path d="m188.82 169.3v3.146h-1.023v-3.146l-3.091-4.873h1.265l2.354 3.905 2.288-3.905h1.221l-3.014 4.873"/>
   <path d="m194.34439,166.51441c.82866,0 1.47033.275 1.925.825 .46199.54267.69299,1.31267.693,2.31-1e-005,.946-.23468,1.69033-.704,2.233-.46201.54266-1.09634.81399-1.903.814-.82134-1e-005-1.46301-.27134-1.925-.814-.45467-.55-.682-1.309-.682-2.277s.231-1.72333.693-2.266c.46199-.55 1.09633-.825 1.903-.825m.011.847c-.51334,0-.91667.20167-1.21.605s-.44.94233-.44,1.639 .14666,1.24666.44,1.65 .69666.594 1.21.594 .90566-.198 1.199-.594c.30066-.40334.45099-.94234.451-1.617-1e-005-.71133-.14667-1.26867-.44-1.672s-.68934-.605-1.21-.605"/>
   <path d="m200.89901,167.48241c-.616.0147-1.078.15767-1.386.429s-.462.78467-.462,1.54v2.992h-.924v-5.764h.847v1.045c.264-.43267.517-.74067.759-.924 .24933-.19067.52067-.286.814-.286 .0807,0 .198.011.352.033v.935"/>
   <path d="m202.59 164.42v4.697l2.442-2.442h1.177l-2.002 1.991 2.354 3.773h-1.133l-1.947-3.124-0.891 0.88v2.244h-0.913v-8.019h0.913"/>
   <path d="m207.49884,171.29941h1.155v1.32c0,.96066-.385,1.44099-1.155,1.441v-.418c.25667-.007.429-.0807.517-.22 .0953-.13934.143-.39967.143-.781v-.198h-.66v-1.144"/>
   <path d="m219.75 164.42v8.019h-1.155l-4.147-6.501v6.501h-0.968v-8.019h1.111l4.191 6.556v-6.556h0.968"/>
   <path d="m222.69 171.3v1.144h-1.144v-1.144h1.144"/>
   <path d="m227.9 169.3v3.146h-1.023v-3.146l-3.091-4.873h1.265l2.354 3.905 2.288-3.905h1.221l-3.014 4.873"/>
   <path d="m233.09 171.3v1.144h-1.144v-1.144h1.144"/>
  </g>
 </g>
 <g transform="translate(-7.8596 171.78)">
  <path transform="translate(25.175 -172.43)" d="m294.19 329.03c-9.9537 1.6954-18.573 3.9181-29.375 2.125-2.3918 0.88418-2.9496 4.184-2.1276 7.4818l-82.31 29.518c-1.813-2.3494-5.0006-3.383-7.9375-2.3125-3.6321 1.3238-5.5113 5.3679-4.1875 9s5.3367 5.4801 8.9688 4.1562c2.8892-1.053 4.6548-3.8066 4.5938-6.7188l81.872-30.643c1.4979 3.0741 4.2552 5.5381 6.6589 4.6745 7.1148-8.3234 15.134-12.174 23.844-17.281z" fill-rule="evenodd"/>
  <path transform="translate(7.8596 -171.78)" d="m192.12 276.91c-1.8156 9.9325-2.6787 18.809-8.0625 28.344 0.0118 2.5704 3.5094 4.8198 6.9375 5.5l-1 56.5c-1.6914 0.80164-2.875 2.5351-2.875 4.5312 0 2.7614 2.2386 5 5 5s5-2.2386 5-5c0-1.956-1.1134-3.6472-2.75-4.4688l-1.375-56.562c3.3698-0.7073 7.2071-2.9581 7.2188-5.5-5.3838-9.5349-6.2781-18.411-8.0938-28.344zm-0.125 7.0938c0.85005 6.6122 1.7376 13.227 5 20 0.14712 2.6869-2.6215 3.7337-5 5-2.3785-1.2663-5.1471-2.3131-5-5 3.2624-6.773 4.15-13.388 5-20z" fill-rule="evenodd" stroke="url(#q)"/>
  <path d="m183.76 294.29 16.243-28.134" fill="none" marker-start="url(#u)" stroke="#000" stroke-width="1.3"/>
  <path transform="translate(23.255 -174.28)" d="m180 440.76a3.4399 3.4399 0 1 1 -6.8798 0 3.4399 3.4399 0 1 1 6.8798 0z"/>
 </g>
 <path transform="matrix(1.4252 0 0 1.4252 441.7 136.54)" d="m-70 165a105 105 0 1 1 -210 0 105 105 0 1 1 210 0z" fill="url(#d)" opacity=".55"/>
</svg>
